PathFileType	4	(X/Y/Z)	s07c0202.trc
DataRate	CameraRate	NumFrames	NumMarkers	Units	OrigDataRate	OrigDataStartFrame	OrigNumFrames
200	200	4	48	mm	200	1000	2000
Frame#	Time	racr			lacr			c7			jug			rlel			rdr			llel			ldr			s2			lic			ric			lasi			rasi			rpsi			lpsi			rgt			lgt			rth1			rth2			rth3			rth4			rlfc			rmfc			rsh1			rsh2			rsh3			rsh4			rlmal			rcal			rtoe			rmt5			lth1			lth2			lth4			lth3			llfc			lmfc			lsh1			lsh2			lsh3			lsh4			llmal			lcal			ltoe			lmt5			SBIKE			LBIKE			RBIKE			
		X1	Y1	Z1	X2	Y2	Z2	X3	Y3	Z3	X4	Y4	Z4	X5	Y5	Z5	X6	Y6	Z6	X7	Y7	Z7	X8	Y8	Z8	X9	Y9	Z9	X10	Y10	Z10	X11	Y11	Z11	X12	Y12	Z12	X13	Y13	Z13	X14	Y14	Z14	X15	Y15	Z15	X16	Y16	Z16	X17	Y17	Z17	X18	Y18	Z18	X19	Y19	Z19	X20	Y20	Z20	X21	Y21	Z21	X22	Y22	Z22	X23	Y23	Z23	X24	Y24	Z24	X25	Y25	Z25	X26	Y26	Z26	X27	Y27	Z27	X28	Y28	Z28	X29	Y29	Z29	X30	Y30	Z30	X31	Y31	Z31	X32	Y32	Z32	X33	Y33	Z33	X34	Y34	Z34	X35	Y35	Z35	X36	Y36	Z36	X37	Y37	Z37	X38	Y38	Z38	X39	Y39	Z39	X40	Y40	Z40	X41	Y41	Z41	X42	Y42	Z42	X43	Y43	Z43	X44	Y44	Z44	X45	Y45	Z45	X46	Y46	Z46	X47	Y47	Z47	X48	Y48	Z48	
1000	5.0000	470.477849	1434.503721	-94.937672	448.469996	1456.203123	-388.801356	418.697857	1512.409651	-235.488000	392.851066	1363.586282	-247.321322	473.119742	1114.072655	69.901595	687.524812	944.909792	-42.378544	475.596535	1138.879374	-539.898028	684.976637	935.249857	-448.327484	-116.620296	1197.902557	-242.662283	22.836024	1278.188772	-389.479238	54.918888	1247.868239	-100.071738	61.726535	1199.690372	-376.278802	76.877853	1204.878428	-126.171521	-90.638564	1236.732541	-192.144137	-89.166845	1254.279133	-298.448659	25.181109	1127.325296	-61.764858	-19.958395	1109.912276	-421.843397	169.595625	1075.696315	-70.921427	254.615221	1057.147584	-85.696692	321.755081	1004.593820	-83.189019	265.865756	1087.592737	-102.973943	424.624784	914.609893	-120.899682	409.936595	897.859798	-226.038695	332.313596	811.566568	-92.255789	289.450682	734.966770	-102.271606	216.012078	688.302483	-93.224218	302.054721	722.825942	-140.102180	120.930200	595.322858	-84.966698	54.402985	627.397319	-117.915875	169.518096	362.408922	-129.918970	108.026474	418.816853	-59.528319	38.451654	996.377866	-435.388861	101.436587	934.836243	-442.634652	133.023726	953.376945	-439.598006	126.621633	849.744201	-436.510911	216.934521	700.554430	-409.961383	213.105570	680.949842	-318.961639	188.971677	556.093300	-431.145632	201.022664	473.417975	-410.907888	169.470363	388.281904	-413.578813	204.482217	477.105158	-368.713368	146.113285	252.783309	-405.765344	82.871301	205.599523	-370.799756	372.130743	228.227251	-365.789429	299.723136	184.176898	-426.809469	-262.696897	968.628160	-240.001196	-83.447815	79.012483	-437.940990	-83.534160	79.445706	-40.278607	
1001	5.0050	467.518751	1437.033347	-91.867260	451.007797	1455.841881	-385.303932	419.688322	1513.381283	-233.516539	391.973394	1364.518032	-244.236280	471.067618	1114.302301	69.099708	687.655329	945.804168	-41.973230	477.894938	1139.674234	-540.623943	687.127699	935.853299	-449.268078	-115.393003	1198.074592	-245.415391	25.404439	1276.884675	-392.469949	53.873119	1250.453428	-102.025148	63.862107	1198.302927	-378.193359	77.080373	1206.658171	-128.200725	-89.914571	1237.402466	-195.266661	-87.685733	1253.913046	-301.876353	26.077277	1130.487597	-63.063201	-18.821516	1108.883486	-422.902826	171.103113	1081.392764	-72.161893	256.637386	1064.281573	-86.713575	324.570770	1012.888240	-84.404153	267.186618	1094.503736	-105.036760	428.873813	924.272953	-122.207518	414.263082	906.774195	-227.353268	337.721215	820.221839	-93.341798	294.708333	743.943428	-103.463617	221.259638	697.108204	-94.450620	307.027930	731.997662	-141.630354	125.829498	603.581862	-85.988143	58.323498	633.833333	-118.576730	179.456401	371.870348	-130.443421	117.080660	426.817378	-59.951647	36.704230	994.294986	-436.754526	97.872364	931.081497	-444.584976	130.047737	948.728191	-441.672913	120.873576	845.318090	-438.160206	208.475351	695.131152	-411.016541	204.922274	675.680968	-319.975559	180.406202	550.632698	-431.886765	192.733186	468.024144	-411.615577	161.220586	382.877412	-413.887959	196.633220	471.710284	-369.421576	138.460279	247.405882	-405.501632	74.947237	200.959177	-370.508115	364.527441	220.691486	-365.862476	291.687315	173.976446	-420.865237	-262.701544	968.684955	-240.321236	-83.444211	79.004223	-437.958338	-83.536740	79.527681	-40.286499	
1002	5.0100	464.445907	1439.724935	-88.689541	453.543978	1455.345113	-381.589718	420.823528	1513.887139	-231.394240	391.472848	1365.201942	-241.447727	469.812401	1114.975882	68.025870	687.778023	946.804012	-41.744779	480.023175	1140.576694	-541.575983	689.121063	936.399459	-450.413035	-114.226816	1198.185501	-248.019042	27.911962	1275.504632	-395.425813	52.990588	1252.754506	-105.179361	65.858612	1196.932357	-380.044067	77.237294	1208.379301	-130.207457	-89.358816	1238.320474	-198.092886	-86.775779	1254.034267	-305.291499	26.946433	1133.625064	-64.183893	-17.810063	1107.677841	-423.996424	172.446606	1087.056584	-73.271844	258.123599	1071.316762	-87.991247	326.929887	1020.746386	-86.015286	268.757311	1100.728754	-107.521053	432.614917	933.290684	-123.351162	418.301974	915.634931	-228.668935	342.796534	828.786849	-94.487680	299.692014	752.571253	-104.956274	226.322465	705.654740	-95.655599	311.843191	740.730314	-143.113916	130.691412	611.238678	-86.925799	62.216618	639.578937	-119.174691	189.903291	381.055203	-131.104282	126.390535	434.454401	-60.476297	35.044137	992.471367	-438.060847	94.510274	927.890763	-447.116175	127.204071	944.620417	-443.586742	115.432515	841.370311	-439.937640	200.539821	690.232077	-411.897518	197.067874	671.270874	-320.646308	172.211090	545.867277	-432.445831	184.593348	463.253611	-412.170152	152.994679	378.209968	-414.094797	188.966022	466.936201	-370.035046	130.597058	242.705389	-405.360564	66.646714	197.122220	-370.332422	356.118392	212.807044	-365.288846	280.292172	174.252945	-430.838380	-262.703435	968.673731	-240.540160	-83.431905	79.007797	-437.983862	-83.551192	79.606657	-40.277670	
1003	5.0150	461.260560	1442.468717	-85.395085	456.168627	1454.761429	-378.229334	421.971661	1514.187017	-229.374100	390.924394	1365.772079	-238.708314	468.683303	1115.899359	66.722085	687.904055	947.771031	-41.338349	481.931408	1141.492034	-542.534089	690.731030	936.861253	-451.553401	-113.265518	1198.279570	-250.524562	30.291752	1274.139154	-398.268095	52.000212	1254.699052	-106.134334	67.761884	1195.676222	-381.791645	77.241547	1209.988183	-132.147559	-89.008221	1238.961916	-200.987768	-85.720579	1253.615313	-308.720190	27.755263	1136.628384	-65.340317	-16.676160	1106.585372	-425.100461	173.669119	1092.218684	-74.114478	259.440804	1077.968259	-89.002921	329.089375	1028.512802	-87.430571	269.560090	1107.231125	-109.248191	436.011553	942.179734	-124.466107	421.614284	924.010550	-230.302716	347.476412	836.772799	-96.233339	304.610649	760.906383	-106.208013	231.348461	713.773918	-96.889998	316.681045	749.267099	-144.475983	135.373496	618.424393	-87.915428	66.158843	644.592302	-119.681065	202.290482	390.789334	-130.103917	135.864153	441.455542	-61.030191	33.487469	990.920280	-439.353963	91.335690	925.014303	-448.884464	124.512802	940.923634	-445.343854	110.328254	837.994959	-441.656219	193.162802	685.769635	-412.249179	190.098541	667.234220	-320.808239	164.555129	541.714379	-432.714629	176.829212	459.064420	-412.397084	145.016823	374.065989	-414.137210	181.465683	462.748592	-370.268572	122.384061	238.948887	-405.511698	58.049330	193.878651	-370.107591	347.458603	206.384052	-365.121399	271.382452	168.564282	-430.681651	-262.703789	968.675022	-240.655165	-83.429171	79.004792	-437.992884	-83.534826	79.609956	-40.284288	
